<svg width="180" height="89" viewBox="0 0 180 89" fill="none" xmlns="http://www.w3.org/2000/svg">
<path d="M37.5381 37.6351C36.2564 39.062 35.1577 40.489 34.6083 42.2726C34.2421 43.3428 33.6928 44.5914 33.1434 45.6616C32.5941 46.7318 32.0448 47.802 31.4954 48.8722C30.5799 50.8342 30.0305 52.9746 29.4812 55.115C29.115 57.2554 28.5656 59.3958 28.1994 61.5362C27.8332 63.3198 27.6501 65.1035 27.4669 66.8872C27.2838 68.6708 27.1007 70.4545 26.9176 72.2382C26.9176 72.7733 26.7345 73.3084 26.5514 74.0218C26.3683 74.5569 26.1851 75.092 26.1851 75.8055C26.1851 75.9838 26.002 76.1622 26.002 76.3406C25.8189 76.5189 25.8189 76.519 25.6358 76.519C25.0865 76.6973 24.7202 76.6973 24.1709 76.6973C23.6216 76.6973 23.2553 76.8757 22.706 76.8757C22.1567 76.8757 21.7904 76.8757 21.4242 76.6973C21.058 76.5189 20.6918 76.1622 20.3255 75.8055C19.7762 75.2704 19.5931 74.9137 19.41 74.3786C19.2269 73.8435 19.2269 73.3084 19.2269 72.7733C19.2269 71.8814 19.0437 70.8112 18.8606 69.9194C18.6775 69.0276 18.4944 68.1357 18.4944 67.0655C18.3113 65.4602 18.1282 63.6766 17.9451 62.0713C17.762 60.466 17.5788 58.8607 17.3957 57.077C17.3957 56.3636 17.2126 55.8285 17.2126 55.115C17.0295 54.4015 17.0295 53.6881 16.8464 52.9746C16.4802 53.3313 16.1139 53.6881 15.9308 54.0448C15.7477 54.4015 15.5646 54.7583 15.3815 55.115C15.1984 55.4717 15.1984 55.8285 15.1984 56.1852C15.1984 56.5419 15.0153 56.8987 15.0153 57.2554C14.4659 58.8607 14.0997 60.466 13.5504 62.0713C13.1841 63.6766 12.6348 65.2819 12.2686 66.8872C11.9023 68.3141 11.5361 69.741 11.1699 71.168C10.8037 72.5949 10.4374 74.0218 10.0712 75.6271L9.8881 76.519C9.70498 77.4108 9.15565 77.9459 8.24008 77.7675C7.87386 77.7675 7.69074 77.7675 7.32452 77.7675C6.95829 77.7675 6.59207 77.7675 6.40895 77.7675C5.6765 77.7675 5.12716 77.4108 4.57782 76.6973C4.02848 76.1622 3.84537 75.4488 3.84537 74.7353C3.84537 73.4867 3.84537 72.2382 3.84537 71.168C3.84537 69.9194 3.84537 68.6708 3.84537 67.6006C3.84537 65.6386 3.84537 63.4982 3.66226 61.5362C3.84537 59.0391 3.66226 57.077 3.66226 54.9366C3.66226 52.0828 3.29603 49.2289 3.11292 46.5534C2.74669 43.8779 2.01424 41.0241 0.915565 38.3486C0.732452 37.9918 0.549339 37.8135 0.549339 37.4567C0.366226 37.1 0.366226 36.9216 0.366226 36.5649C0 36.0298 0 35.6731 0 35.3163C0.183113 35.138 0.549339 34.9596 1.09868 34.7812C2.01424 34.7812 2.92981 34.7813 3.47915 35.138C4.2116 35.4947 4.76094 36.0298 5.12716 37.1C5.85961 38.8837 6.59207 40.6673 7.1414 42.6294C7.69074 44.413 8.24008 46.3751 8.60631 48.3371C8.97253 50.4775 9.15565 52.6179 9.33876 54.5799C9.52187 56.7203 9.52187 58.8607 9.52187 61.0011C9.52187 61.1795 9.52187 61.1795 9.52187 61.3578C9.52187 61.5362 9.52187 61.7146 9.52187 61.8929C9.8881 61.8929 10.2543 61.7146 10.2543 61.3578C10.8037 61.0011 10.8037 60.6444 10.9868 60.466C11.7192 58.1472 12.6348 55.8285 13.5504 53.6881C14.4659 51.3693 15.5646 49.2289 16.6633 47.0885C16.8464 46.7318 17.0295 46.3751 17.0295 46.0183C17.0295 45.6616 17.0295 45.3049 17.0295 44.9481C17.0295 44.0563 17.2126 43.5212 17.3957 43.1645C17.5788 42.8077 18.1282 42.6294 19.0437 42.6294C19.2269 42.6294 19.5931 42.6294 19.7762 42.6294C19.9593 42.6294 20.1424 42.6294 20.3255 42.451C20.5086 42.451 20.6918 42.2726 20.8749 42.2726C21.058 42.0943 21.2411 42.0943 21.6073 41.9159L23.9878 63.6766H24.354C24.5371 63.3198 24.5371 62.9631 24.7202 62.7847C25.0865 60.466 25.8189 58.1472 26.5514 55.8285C27.2838 53.5097 28.1994 51.3693 29.115 49.0505C29.8474 47.6236 30.3967 46.1967 31.1292 44.5914C31.8616 43.1645 32.411 41.5592 32.9603 40.1322C33.5097 38.7053 34.2421 37.6351 35.3408 36.7433C36.4395 35.8514 37.9044 35.6731 39.5524 36.0298L37.5381 37.6351Z" fill="black"/>
<path d="M44.4966 67.2439C44.6797 67.4223 44.8628 67.4223 45.0459 67.4223C45.229 67.4223 45.5952 67.4223 45.7784 67.2439C45.9615 67.0656 46.3277 66.8872 46.5108 66.7088C46.877 66.5305 47.0602 66.3521 47.4264 65.9954C47.7926 65.817 48.1588 65.4603 48.7082 65.2819C48.7082 65.6386 48.5251 66.1737 48.3419 66.7088C48.1588 67.2439 47.7926 67.6007 47.0602 68.1358C46.5108 68.6709 45.9615 69.0276 45.5952 69.2059C45.229 69.3843 44.6797 69.3843 43.9472 69.2059H43.7641C43.581 69.5627 43.581 70.0978 43.3979 70.4545C43.2148 70.8112 43.2148 71.168 42.8486 71.7031C42.4823 72.4165 42.1161 73.13 41.5668 73.8435C41.0174 74.5569 40.285 74.7353 39.1863 74.9137C37.5383 74.9137 35.8903 74.3786 34.2422 73.3084C33.6929 72.9516 33.3267 72.5949 33.1436 72.0598C32.9605 71.5247 32.7773 70.9896 32.7773 70.4545V65.1035C32.7773 64.9252 32.7773 64.7468 32.7773 64.5684C32.7773 64.3901 32.7773 64.2117 32.7773 64.0333L33.1436 60.466C33.5098 58.6823 33.876 57.077 34.4254 55.4718C34.9747 53.8665 35.524 52.2612 36.2565 50.6559L36.8058 49.764C37.3552 48.6938 38.2707 48.3371 39.5525 48.6938C40.285 48.8722 41.0174 49.0506 41.7499 49.2289C42.4823 49.4073 43.2148 49.5857 43.9472 49.764V49.9424V50.1208C43.3979 50.4775 43.0317 50.6559 42.4823 51.0126C41.933 51.191 41.5668 51.5477 41.2005 51.9044C40.8343 52.2612 40.4681 52.6179 40.285 53.153C40.1019 53.6881 39.9187 54.2232 40.1019 54.7583C41.0174 54.9367 41.933 55.115 42.8486 55.2934C43.7641 55.4718 44.6797 55.6501 45.5952 55.6501L46.6939 60.2876C46.6939 60.6444 46.6939 61.0011 46.5108 61.3578C46.3277 61.7146 46.3277 61.8929 46.1446 62.2497C45.9615 62.6064 45.7784 62.9631 45.5952 63.3199C45.4121 63.6766 45.229 64.2117 45.0459 64.9252L44.4966 67.2439ZM39.9187 71.7031C40.285 70.8112 40.6512 69.9194 41.0174 69.0276C41.3837 68.1358 41.5668 67.2439 41.933 66.3521L41.7499 65.6386C41.5668 64.9252 41.3837 64.0333 41.3837 62.7848C41.3837 61.5362 41.3837 60.2876 41.5668 59.0391C41.2005 58.504 40.8343 57.9689 40.4681 57.4338C40.285 56.8987 40.1019 56.1852 40.1019 55.4718C39.9187 55.4718 39.7356 55.4718 39.5525 55.4718C39.5525 55.6501 39.3694 55.6501 39.3694 55.8285C39.3694 56.0068 39.1863 56.0068 39.1863 56.1852C38.4538 58.1472 37.9045 60.2876 37.5383 62.428C37.1721 64.5684 36.9889 66.7088 36.9889 68.8492C36.9889 69.3843 36.9889 69.9194 36.9889 70.4545C36.9889 70.9896 37.1721 71.5247 37.3552 72.0598C37.3552 72.2382 37.5383 72.4165 37.7214 72.5949C37.9045 72.7733 38.0876 72.9516 38.2707 73.13C38.4538 73.13 38.637 73.13 38.8201 73.13C39.0032 72.9516 39.1863 72.9516 39.3694 72.7733C39.5525 72.4165 39.9187 72.0598 39.9187 71.7031Z" fill="black"/>
<path d="M70.6806 65.8168C70.8637 65.9952 71.2299 66.1736 71.7793 66.1736C72.1455 66.1736 72.878 65.8168 73.6104 65.2817C73.4273 65.8168 73.2442 66.1736 73.0611 66.5303C72.878 66.887 72.5117 67.2438 72.3286 67.4221C72.1455 67.6005 71.7793 67.7789 71.5962 67.9572C71.4131 68.1356 71.2299 68.1356 71.0468 68.1356C70.8637 68.1356 70.6806 67.9572 70.4975 67.7789C70.3144 67.6005 69.9482 67.4221 69.765 67.2438L68.6664 66.3519C68.4833 66.7087 68.4833 67.4221 68.3001 68.1356C68.3001 68.8491 68.117 69.7409 67.7508 70.8111C67.5677 71.5246 67.2015 72.238 66.8352 72.5947C66.469 73.1298 65.9197 73.3082 65.1872 73.4866C64.6379 73.6649 63.9054 73.6649 63.173 73.4866C62.4405 73.3082 61.8912 72.9515 61.1587 72.4164C60.6094 72.0596 60.4263 71.5246 60.2432 71.1678C60.0601 70.6327 59.8769 70.276 59.8769 69.7409L59.6938 65.6385C59.6938 65.1034 59.5107 64.7466 59.5107 64.2115C59.5107 63.6764 59.3276 63.3197 59.3276 62.7846H59.1445H58.9614C58.7783 63.4981 58.412 64.2115 58.2289 64.925C58.0458 65.6385 57.6796 66.3519 57.4965 67.0654C57.1303 67.9572 56.9471 69.0274 56.5809 69.9193C56.2147 70.8111 56.0316 71.8813 55.6653 72.7731C55.2991 73.6649 54.9329 74.2 54.2004 74.3784C53.6511 74.5568 52.9187 74.5568 51.82 74.0217C51.0875 73.6649 50.3551 73.3082 49.8057 72.7731C49.2564 72.238 48.7071 71.5245 48.3408 70.9895C48.1577 70.6327 47.9746 70.276 47.9746 69.9193C47.9746 69.5625 47.9746 69.2058 47.9746 68.8491C47.9746 68.314 47.9746 67.6005 48.1577 66.7087C48.1577 65.8168 48.1577 65.1034 48.3408 64.2115C48.3408 63.3197 48.3408 62.4279 48.5239 61.7144C48.5239 60.8226 48.5239 60.1091 48.7071 59.574V59.3956C48.7071 59.0389 48.8902 58.5038 48.8902 57.9687C49.0733 57.4336 49.0733 56.7202 49.0733 56.0067C49.0733 55.2932 49.2564 54.7581 49.2564 54.0447C49.4395 53.5096 49.4395 52.9745 49.4395 52.6177C49.6226 51.9043 49.8057 51.3692 49.9888 51.0124C50.172 50.6557 50.3551 50.299 50.7213 50.299C51.0875 50.1206 51.4538 50.1206 51.82 50.1206C52.3693 50.1206 52.9187 50.299 53.6511 50.4773C54.0173 50.4773 54.5667 50.6557 54.9329 50.8341C55.2991 51.0124 55.8485 51.1908 56.2147 51.3692C56.0316 51.7259 56.0316 51.9043 55.8485 52.0826C55.8485 52.261 55.6653 52.4394 55.4822 52.6177C54.2004 53.5096 53.8342 54.7581 54.3836 56.3634V56.5418C54.3836 56.7202 54.3836 56.7202 54.3836 56.7202C54.0173 57.2553 53.8342 57.612 53.6511 58.1471C53.468 58.6822 53.468 59.2173 53.2849 59.7524C53.2849 60.2875 53.1018 60.8226 53.1018 61.3577C53.1018 61.8928 53.1018 62.4279 52.9187 62.963C52.7355 64.2115 52.5524 65.4601 52.3693 66.7087C52.1862 67.9572 52.0031 69.2058 51.82 70.4544C51.82 70.8111 51.6369 70.9895 51.82 71.3462C51.82 71.5246 52.0031 71.8813 52.5524 72.238L53.8342 69.9193C54.7498 67.7789 55.8485 65.4601 56.9471 63.3197C58.0458 61.1793 58.9614 58.8605 60.0601 56.7202C60.6094 55.65 61.525 55.65 62.9899 56.5418C62.8068 58.8606 62.6236 61.1793 62.6236 63.4981C62.6236 65.8168 62.8068 68.1356 62.9899 70.4544H63.173H63.3561L63.7223 69.5625C63.9054 68.4923 64.0885 67.7789 64.2717 67.2438C64.4548 66.7087 64.4548 66.1736 64.6379 65.8168C64.821 65.4601 65.0041 64.925 65.1872 64.3899C65.3703 63.8548 65.7366 63.1413 66.2859 62.2495C66.469 61.7144 66.6521 61.0009 66.6521 60.4658C66.6521 59.7524 66.6521 59.2173 66.8352 58.5038L67.2015 56.5418C67.3846 56.0067 67.7508 55.65 68.4833 55.65C68.8495 55.65 69.2157 55.65 69.5819 55.65C69.9482 55.65 70.3144 55.8283 70.4975 56.1851C71.0468 56.8985 71.2299 57.7904 70.8637 58.6822C70.3144 60.2875 69.9482 61.7144 69.5819 63.3197C69.5819 63.4981 69.5819 63.6764 69.5819 63.8548C69.5819 64.0332 69.5819 64.3899 69.765 64.7466C69.765 65.1034 69.9482 65.2817 70.1313 65.4601C70.4975 65.6385 70.4975 65.8168 70.6806 65.8168Z" fill="black"/>
<path d="M91.74 35.6732C93.388 35.3164 94.4867 36.0299 95.036 37.8136C95.2192 38.527 95.4023 39.2405 95.2192 40.1323C95.2192 40.8458 95.036 41.5593 94.8529 42.4511C94.4867 43.5213 94.3036 44.5915 93.9374 45.6617C93.5711 46.7319 93.2049 47.8021 92.6556 48.6939C92.2894 49.229 91.9231 49.9425 91.74 50.6559C91.5569 51.3694 91.1907 51.9045 90.8244 52.618L87.8946 58.6824C87.8946 58.8608 87.7115 59.0391 87.7115 59.2175C87.7115 59.3959 87.5284 59.7526 87.5284 59.931L88.8102 60.2877C88.9933 60.2877 89.3595 60.4661 89.5427 60.4661C89.7258 60.4661 90.092 60.6444 90.2751 60.6444C90.8244 60.8228 91.3738 61.1795 91.9231 61.5363C92.4725 61.893 92.8387 62.4281 93.2049 62.9632C93.5711 63.4983 93.7543 64.0334 93.9374 64.7469C94.1205 65.282 94.1205 65.9954 94.1205 66.5305C94.1205 66.7089 94.1205 66.8873 93.9374 67.0656L89.5427 72.0599C89.3595 72.2382 89.1764 72.4166 88.9933 72.595C88.8102 72.7733 88.6271 72.9517 88.444 73.3084C88.2609 73.6652 88.0778 74.0219 87.8946 74.3786C87.7115 74.7354 87.5284 75.0921 87.1622 75.4488C86.6128 76.3407 85.8804 76.6974 85.1479 76.8758C84.4155 77.0541 83.4999 76.6974 82.7675 76.1623C82.2181 75.8056 82.035 75.0921 82.4013 74.3786C83.1337 73.1301 83.8662 71.8815 84.5986 70.8113C85.5142 69.7411 86.4297 68.6709 87.3453 67.6007L88.444 66.1738C88.9933 65.282 89.1764 64.5685 88.8102 63.6767C88.444 62.9632 87.8946 62.4281 86.796 62.0714C86.2466 61.893 85.8804 61.7146 85.3311 61.7146C84.7817 61.5363 84.4155 61.5363 84.0493 61.1795C83.683 61.0012 83.4999 60.8228 83.1337 60.6444C82.7675 60.4661 82.5844 60.2877 82.035 59.931C83.3168 58.504 84.2324 56.8988 84.9648 55.4718C85.6973 53.8665 86.4297 52.2612 86.9791 50.8343C87.5284 49.4074 88.0778 47.9804 88.6271 46.5535C89.1764 45.1266 89.7258 43.6996 90.2751 42.2727C90.6413 41.3809 90.8244 40.6674 90.8244 40.1323C90.8244 39.5972 90.8244 39.0621 90.6413 38.1703C90.092 38.3487 89.5427 38.7054 89.1764 39.0621C88.8102 39.4189 88.2609 39.7756 87.8946 40.1323C87.1622 41.0242 86.2466 42.0944 85.5142 42.9862C84.7817 43.878 84.2324 44.9482 83.683 46.1968C83.4999 46.7319 83.1337 47.4453 82.9506 47.9804C82.7675 48.5155 82.5844 49.229 82.4013 49.7641C82.035 51.3694 81.4857 52.7963 80.9364 54.4016C80.387 55.8286 80.0208 57.4338 80.0208 59.2175L79.4715 67.4224C79.4715 68.3142 79.2883 69.3844 79.2883 70.2762C79.2883 71.168 79.2883 72.0599 79.2883 73.1301C79.2883 74.3786 78.5559 74.9137 77.2741 74.557L76.1754 74.2003C75.443 74.0219 74.8936 73.6652 74.7105 73.4868C74.5274 73.3084 74.5274 72.7733 74.5274 71.8815C74.7105 70.6329 74.8936 69.5627 74.8936 68.3142C75.0767 67.0656 75.0767 65.9954 75.0767 64.7469C75.0767 62.6065 75.2599 60.6444 75.0767 58.504C75.0767 56.542 75.0767 54.4016 75.0767 52.2612C75.0767 49.9425 74.8936 47.6237 74.7105 45.4833C74.3443 43.1645 73.9781 41.0242 73.4287 38.7054C73.4287 38.527 73.2456 38.1703 73.2456 37.9919C73.2456 37.8136 73.0625 37.4568 73.0625 37.2785C73.9781 36.9217 75.0767 36.9217 75.8092 37.2785C76.7248 37.4568 77.4572 37.9919 78.0065 38.8838C78.5559 39.5972 78.9221 40.3107 79.1052 41.0242C79.4715 41.7376 79.4715 42.6294 79.4715 43.5213C79.4715 44.4131 79.4715 45.4833 79.4715 46.3751C79.4715 47.267 79.4715 48.3372 79.4715 49.229C79.6546 49.229 79.8377 49.4074 80.0208 49.4074C80.2039 49.229 80.2039 48.8723 80.387 48.6939C80.5701 48.5155 80.5701 48.1588 80.7532 47.9804C81.4857 45.4833 82.7675 43.3429 84.2324 41.5593C85.8804 39.7756 87.7115 37.9919 89.7258 36.565C89.9089 36.3866 90.2751 36.2083 90.6413 36.0299C91.1907 35.8515 91.5569 35.6732 91.74 35.6732Z" fill="black"/>
<path d="M106.938 67.2439C107.121 67.4223 107.304 67.4223 107.487 67.4223C107.67 67.4223 108.037 67.4223 108.22 67.2439C108.403 67.0656 108.769 66.8872 108.952 66.7088C109.318 66.5305 109.502 66.3521 109.868 65.9954C110.234 65.817 110.6 65.4603 111.15 65.2819C111.15 65.6386 110.966 66.1737 110.783 66.7088C110.6 67.2439 110.234 67.6007 109.502 68.1358C108.952 68.6709 108.403 69.0276 108.037 69.2059C107.67 69.3843 107.121 69.3843 106.389 69.2059H106.206C106.022 69.5627 106.022 70.0978 105.839 70.4545C105.656 70.8112 105.656 71.168 105.29 71.7031C104.924 72.4165 104.558 73.13 104.008 73.8435C103.459 74.5569 102.726 74.7353 101.628 74.9137C99.9797 74.9137 98.3317 74.3786 96.6837 73.3084C96.1343 72.9516 95.7681 72.5949 95.585 72.0598C95.4019 71.5247 95.2188 70.9896 95.2188 70.4545V65.1035C95.2188 64.9252 95.2188 64.7468 95.2188 64.5684C95.2188 64.3901 95.2188 64.2117 95.2188 64.0333L95.585 60.466C95.9512 58.6823 96.3174 57.077 96.8668 55.4718C97.4161 53.8665 97.9654 52.2612 98.6979 50.6559L99.2472 49.764C99.7966 48.6938 100.712 48.3371 101.994 48.6938C102.726 48.8722 103.459 49.0506 104.191 49.2289C104.924 49.4073 105.656 49.5857 106.389 49.764V49.9424V50.1208C105.839 50.4775 105.473 50.6559 104.924 51.0126C104.374 51.191 104.008 51.5477 103.642 51.9044C103.276 52.2612 102.909 52.6179 102.726 53.153C102.543 53.6881 102.36 54.2232 102.543 54.7583C103.459 54.9367 104.374 55.115 105.29 55.2934C106.206 55.4718 107.121 55.6501 108.037 55.6501L109.135 60.2876C109.135 60.6444 109.135 61.0011 108.952 61.3578C108.769 61.7146 108.769 61.8929 108.586 62.2497C108.403 62.6064 108.22 62.9631 108.037 63.3199C107.854 63.6766 107.67 64.2117 107.487 64.9252L106.938 67.2439ZM102.543 71.7031C102.909 70.8112 103.276 69.9194 103.642 69.0276C104.008 68.1358 104.191 67.2439 104.558 66.3521L104.374 65.6386C104.191 64.9252 104.008 64.0333 104.008 62.7848C104.008 61.5362 104.008 60.2876 104.191 59.0391C103.825 58.504 103.459 57.9689 103.093 57.4338C102.909 56.8987 102.726 56.1852 102.726 55.4718C102.543 55.4718 102.36 55.4718 102.177 55.4718C102.177 55.6501 101.994 55.6501 101.994 55.8285C101.994 56.0068 101.811 56.0068 101.811 56.1852C101.078 58.1472 100.529 60.2876 100.163 62.428C99.7966 64.5684 99.6135 66.7088 99.6135 68.8492C99.6135 69.3843 99.6135 69.9194 99.6135 70.4545C99.6135 70.9896 99.7966 71.5247 99.9797 72.0598C99.9797 72.2382 100.163 72.4165 100.346 72.5949C100.529 72.7733 100.712 72.9516 100.895 73.13C101.078 73.13 101.261 73.13 101.445 73.13C101.628 72.9516 101.811 72.9516 101.994 72.7733C102.177 72.4165 102.36 72.0598 102.543 71.7031Z" fill="black"/>
<path d="M125.799 51.0125C127.081 50.6557 128.179 50.8341 129.095 51.9043C129.461 52.261 129.644 52.7961 129.644 53.3312C129.644 53.8663 129.644 54.4014 129.278 54.9365C128.912 55.8283 128.546 56.7202 128.179 57.612C127.813 58.5038 127.447 59.3957 127.264 60.2875C127.081 60.6442 126.898 61.001 126.531 61.5361C126.165 62.0712 125.982 62.6063 125.799 62.7846V64.0332C125.616 64.0332 125.25 64.0332 125.066 64.0332C124.883 64.0332 124.7 64.0332 124.517 63.8548C123.602 63.4981 122.869 63.1414 122.686 62.7846C122.503 62.2495 122.503 61.5361 122.686 60.6442C123.052 59.7524 123.235 58.8606 123.602 57.9687C123.968 57.0769 124.334 56.1851 124.517 55.2932L125.066 53.6879C124.7 53.8663 124.334 54.0447 124.151 54.223C123.968 54.4014 123.785 54.7581 123.602 54.9365C122.503 56.5418 121.587 58.1471 120.672 59.9308C119.756 61.7144 119.207 63.4981 118.658 65.2817C118.291 66.3519 117.925 67.4221 117.559 68.314C117.193 69.3842 116.826 70.276 116.46 71.3462C116.277 71.7029 116.094 72.238 116.277 72.5948C116.277 72.9515 116.46 73.4866 116.826 73.8433C116.094 74.2001 115.545 74.5568 114.812 74.5568C114.08 74.5568 113.53 74.5568 112.981 74.2001C112.432 74.0217 111.882 73.4866 111.516 72.9515C111.15 72.4164 110.967 71.7029 110.967 70.9895C110.967 70.4544 110.967 69.7409 111.15 69.2058C111.333 68.6707 111.333 67.9572 111.516 67.4221L111.699 65.4601C111.882 64.5683 111.882 63.8548 112.065 63.3197C112.065 62.7846 112.249 62.0712 112.249 61.5361C112.249 61.001 112.432 60.2875 112.432 59.574C112.615 58.8606 112.615 58.1471 112.798 57.2553C112.798 56.0067 112.981 54.9365 113.347 53.6879C113.713 52.4394 113.897 51.3692 114.263 50.1206C114.446 49.4072 114.629 49.0504 114.995 48.8721C115.178 48.6937 115.728 48.6937 116.643 48.8721C117.376 49.0504 117.742 49.0504 118.108 49.2288C118.474 49.4072 118.841 49.5855 119.207 49.9423C118.658 51.9043 118.108 53.8663 117.742 55.8283C117.376 57.7904 117.376 59.7524 117.742 61.8928L120.122 58.1471C120.855 57.0769 121.404 56.0067 121.954 54.9365C122.503 53.8663 123.418 52.9745 124.334 52.261C124.517 52.0826 124.883 51.9043 125.25 51.7259C125.066 51.3692 125.433 51.1908 125.799 51.0125Z" fill="black"/>
<path d="M144.843 70.6326C145.575 70.0975 146.491 69.2057 147.406 68.3139C148.322 67.2437 149.054 66.3518 149.787 65.46C149.787 67.0653 149.604 68.3139 149.238 69.3841C148.871 70.4543 148.322 71.3461 147.773 71.8812C146.674 72.773 145.575 73.1298 144.66 72.9514C143.744 72.773 142.646 72.2379 141.73 71.3461C141.181 70.9894 140.998 70.6326 140.998 70.0975C140.814 69.2057 140.631 68.1355 140.631 67.2437C140.448 66.3518 140.814 65.46 141.181 64.5682L142.829 61.3576C143.012 60.8225 143.378 60.109 143.378 59.3956C143.561 58.6821 143.561 57.9686 143.378 57.0768C143.012 57.4335 142.829 57.6119 142.646 57.7903C142.462 57.9686 142.279 58.147 142.096 58.3254C140.814 60.2874 139.35 62.4278 138.068 64.3898C136.786 66.3518 135.504 68.4922 134.589 70.811C134.405 71.1677 134.222 71.3461 134.039 71.7028C133.856 72.0596 133.673 72.2379 133.49 72.5947C132.391 72.5947 131.476 72.4163 130.743 71.7028C130.011 71.1677 129.645 70.2759 129.645 69.3841C129.645 68.6706 129.645 67.7788 129.828 66.5302C130.011 65.2816 130.011 64.0331 130.194 62.7845C130.377 61.3576 130.56 59.7523 130.743 58.147C130.926 57.9686 131.109 57.7903 131.109 57.6119C131.109 57.4335 131.109 57.0768 131.109 56.8984C131.109 56.7201 131.109 56.5417 131.109 56.185C131.109 55.8282 131.109 55.6499 131.109 55.2931C131.109 55.1148 131.293 54.758 131.293 54.5797C131.293 54.4013 131.476 54.2229 131.476 54.0446C131.476 54.0446 131.842 53.8662 132.025 53.8662C132.391 53.8662 132.757 53.8662 133.124 54.0446C133.49 54.2229 133.856 54.2229 134.222 54.4013C134.589 54.5797 134.772 54.758 134.772 55.1148L134.955 57.2552C134.772 57.7903 134.772 58.147 134.772 58.6821C134.772 59.2172 134.772 59.7523 134.772 60.2874C134.772 60.8225 134.589 61.1792 134.589 61.536C134.405 61.8927 134.405 62.4278 134.405 62.7845L134.772 62.9629C134.955 62.7845 135.138 62.6062 135.321 62.6062C135.504 62.4278 135.687 62.4278 135.687 62.2494C136.603 61.0009 137.518 59.7523 138.617 58.5037C139.716 57.4335 140.814 56.3633 142.096 55.2931C142.646 54.758 143.195 54.5797 143.927 54.4013C144.477 54.2229 144.843 54.4013 145.209 54.5797C145.575 54.758 145.942 55.1148 146.308 55.6499C146.674 56.185 147.04 56.7201 147.04 57.2552C147.223 57.7903 147.04 58.3254 147.04 59.0388C146.674 60.4658 146.491 61.7143 146.308 63.1413C146.125 64.5682 145.758 65.9951 145.209 67.2437C145.026 67.6004 144.843 68.1355 144.843 68.6706C143.927 69.5624 144.11 70.0975 144.843 70.6326Z" fill="black"/>
<path d="M162.787 52.6177C163.702 52.796 164.069 53.3311 163.885 54.0446C163.885 54.223 163.702 54.4013 163.702 54.5797C163.702 54.7581 163.519 54.9364 163.519 55.1148C162.604 56.5417 161.688 57.9686 160.589 59.2172C159.491 60.4658 158.209 61.7143 156.744 62.9629C156.195 63.498 155.828 63.8547 155.279 64.3898C154.73 64.9249 154.364 65.46 153.997 65.9951C153.814 66.3519 153.631 66.7086 153.631 67.2437C153.631 67.6004 153.631 68.1355 153.631 68.4923C153.631 69.2057 153.814 69.7408 154.364 70.6326C154.913 71.3461 155.462 71.8812 156.195 72.4163C156.561 72.2379 156.927 71.8812 157.476 71.5245C158.026 71.1677 158.392 70.811 158.758 70.6326C160.04 69.5624 161.139 68.4923 162.421 67.7788C163.702 66.887 164.618 66.1735 165.167 65.6384C165.167 65.9951 164.984 66.5302 164.801 66.887C164.801 67.2437 164.618 67.6004 164.435 67.9572C164.252 68.3139 164.069 68.6706 163.885 69.0274C163.336 69.9192 162.604 70.811 161.688 71.5245C160.773 72.2379 159.857 72.9514 158.758 73.6649C158.026 74.2 157.476 74.3783 156.744 74.3783C156.012 74.3783 155.279 74.2 154.364 74.0216C153.082 73.6649 151.8 73.1298 150.701 72.2379C149.603 71.3461 148.87 70.2759 148.321 69.2057C148.321 69.0273 148.138 68.849 148.138 68.6706C148.138 68.4923 148.138 68.3139 147.955 67.9572C147.955 67.6004 147.955 67.2437 147.771 66.887C147.771 66.5302 147.771 66.1735 147.771 65.6384C147.771 65.2817 147.771 64.7466 147.955 64.2115C147.955 63.6764 148.138 63.1413 148.504 62.4278C148.87 61.1792 149.236 60.109 149.786 59.0388C150.335 57.9686 150.884 56.7201 151.434 55.6499C151.617 55.2932 151.8 54.7581 152.166 54.4013C152.349 54.0446 152.716 53.5095 152.899 53.1528C153.082 52.9744 153.265 52.796 153.448 52.4393C153.631 52.2609 153.814 52.0826 153.997 51.9042C154.73 51.1907 155.828 50.834 157.11 51.1907C157.476 51.1907 157.66 51.3691 158.026 51.3691C158.392 51.3691 158.758 51.3691 159.124 51.5475C159.674 51.5475 160.04 51.7258 160.223 51.9042C160.956 51.9042 161.871 52.2609 162.787 52.6177ZM155.096 59.9307C157.843 57.2552 159.491 55.1148 160.223 53.3311C159.491 53.1528 158.941 52.9744 158.758 52.9744C158.575 52.9744 158.209 53.1528 157.843 53.6879C156.927 54.5797 156.378 55.4715 155.828 56.3633C155.279 57.2552 154.913 58.3254 154.73 59.3956V59.5739C154.913 59.7523 155.096 59.9307 155.096 59.9307Z" fill="black"/>
<path d="M175.788 67.2439C175.971 67.4223 176.154 67.4223 176.337 67.4223C176.52 67.4223 176.886 67.4223 177.069 67.2439C177.252 67.0656 177.619 66.8872 177.802 66.7088C178.168 66.5305 178.351 66.3521 178.717 65.9954C179.084 65.817 179.45 65.4603 179.999 65.2819C179.999 65.6386 179.816 66.1737 179.633 66.7088C179.45 67.2439 179.084 67.6007 178.351 68.1358C177.802 68.6709 177.252 69.0276 176.886 69.2059C176.52 69.3843 175.971 69.3843 175.238 69.2059H175.055C174.872 69.5627 174.872 70.0978 174.689 70.4545C174.506 70.8112 174.506 71.168 174.14 71.7031C173.773 72.4165 173.407 73.13 172.858 73.8435C172.308 74.5569 171.576 74.7353 170.477 74.9137C168.829 74.9137 167.181 74.3786 165.533 73.3084C164.984 72.9516 164.618 72.5949 164.435 72.0598C164.251 71.5247 164.068 70.9896 164.068 70.4545V65.1035C164.068 64.9252 164.068 64.7468 164.068 64.5684C164.068 64.3901 164.068 64.2117 164.068 64.0333L164.435 60.466C164.801 58.6823 165.167 57.077 165.716 55.4718C166.266 53.8665 166.815 52.2612 167.548 50.6559L168.097 49.764C168.646 48.6938 169.562 48.3371 170.844 48.6938C171.576 48.8722 172.308 49.0506 173.041 49.2289C173.773 49.4073 174.506 49.5857 175.238 49.764V49.9424V50.1208C174.689 50.4775 174.323 50.6559 173.773 51.0126C173.224 51.191 172.858 51.5477 172.492 51.9044C172.125 52.2612 171.759 52.6179 171.576 53.153C171.393 53.6881 171.21 54.2232 171.393 54.7583C172.308 54.9367 173.224 55.115 174.14 55.2934C175.055 55.4718 175.971 55.6501 176.886 55.6501L177.985 60.2876C177.985 60.6444 177.985 61.0011 177.802 61.3578C177.619 61.7146 177.619 61.8929 177.436 62.2497C177.252 62.6064 177.069 62.9631 176.886 63.3199C176.703 63.6766 176.52 64.2117 176.337 64.9252L175.788 67.2439ZM171.393 71.7031C171.759 70.8112 172.125 69.9194 172.492 69.0276C172.858 68.1358 173.041 67.2439 173.407 66.3521L173.224 65.6386C173.041 64.9252 172.858 64.0333 172.858 62.7848C172.858 61.5362 172.858 60.2876 173.041 59.0391C172.675 58.504 172.308 57.9689 171.942 57.4338C171.759 56.8987 171.576 56.1852 171.576 55.4718C171.393 55.4718 171.21 55.4718 171.027 55.4718C171.027 55.6501 170.844 55.6501 170.844 55.8285C170.844 56.0068 170.66 56.0068 170.66 56.1852C169.928 58.1472 169.379 60.2876 169.012 62.428C168.829 64.2117 168.463 66.3521 168.463 68.6709C168.463 69.206 168.463 69.7411 168.463 70.2762C168.463 70.8113 168.646 71.3463 168.829 71.8814C168.829 72.0598 169.012 72.2382 169.196 72.4165C169.379 72.5949 169.562 72.7733 169.745 72.9516C169.928 72.9516 170.111 72.9516 170.294 72.9516C170.477 72.7733 170.66 72.7733 170.844 72.5949C171.027 72.4165 171.21 72.0598 171.393 71.7031Z" fill="black"/>
<path d="M21.2414 87.9344C21.2414 88.1128 21.2414 88.1128 21.2414 87.9344C21.0583 88.1128 21.0583 88.1128 21.0583 88.1128H20.8751C20.692 88.1128 20.692 88.1128 20.5089 88.1128H20.3258L17.9453 84.9022V88.1128C17.9453 88.1128 17.9453 88.1128 17.7622 88.1128H17.5791H17.396H17.2129V82.0483C17.2129 82.0483 17.2129 82.0483 17.396 82.0483H17.5791H17.7622H17.9453V84.9022L20.1427 82.0483C20.1427 82.0483 20.1427 82.0483 20.3258 82.0483C20.3258 82.0483 20.3258 82.0483 20.5089 82.0483H20.692H20.8751H21.0583C21.0583 82.0483 21.0583 82.0483 21.0583 82.2267C21.0583 82.2267 21.0583 82.4051 20.8751 82.4051L18.6778 84.9022L21.0583 87.9344C21.2414 87.7561 21.2414 87.9344 21.2414 87.9344Z" fill="black"/>
<path d="M27.2849 87.7563C27.2849 87.9347 27.2849 87.9347 27.2849 87.7563C27.2849 87.9347 27.2849 87.9347 27.2849 88.1131C27.2849 88.1131 27.2849 88.1131 27.1018 88.1131H26.9187C26.7355 88.1131 26.7355 88.1131 26.7355 88.1131H26.5524L26.0031 86.5078H23.2564L22.7071 87.9347C22.7071 87.9347 22.7071 87.9347 22.5239 87.9347H22.3408C22.1577 87.9347 22.1577 87.9347 22.1577 87.9347H21.9746C21.9746 87.9347 21.9746 87.9347 21.9746 87.7563V87.578L24.172 81.6919C24.172 81.6919 24.172 81.6919 24.3551 81.6919H24.5382H24.7213C24.9044 81.6919 24.9044 81.6919 24.9044 81.6919H25.0875C25.0875 81.6919 25.0875 81.6919 25.2706 81.6919C25.2706 81.6919 25.2706 81.6919 25.2706 81.8703L27.2849 87.7563ZM24.3551 82.5837L23.2564 85.7943H25.6369L24.3551 82.5837Z" fill="black"/>
<path d="M31.6788 87.7561C31.6788 87.9344 31.6788 87.9344 31.6788 88.1128H28.749H28.5659L28.3828 87.9344V82.0483C28.3828 82.0483 28.3828 82.0483 28.5659 82.0483H28.749H28.9322H29.1153V87.3993H31.4957C31.6788 87.3993 31.6788 87.5777 31.6788 87.7561Z" fill="black"/>
<path d="M33.5098 87.9344C33.3267 88.1128 33.5098 88.1128 33.5098 87.9344C33.3267 88.1128 33.3267 88.1128 33.3267 88.1128H33.1436H32.9605H32.7773V82.0483C32.7773 82.0483 32.7773 82.0483 32.9605 82.0483H33.1436H33.3267H33.5098V87.9344Z" fill="black"/>
<path d="M42.1155 87.9344C42.1155 88.1128 42.1155 88.1128 42.1155 87.9344C41.9324 88.1128 41.9324 88.1128 41.9324 88.1128H41.7493H41.5662H41.3831V82.5834L39.1857 88.1128C39.1857 88.1128 39.1857 88.1128 39.0026 88.1128H38.8195H38.6364C38.6364 88.1128 38.6364 88.1128 38.4532 88.1128L36.2559 82.5834V88.1128C36.2559 88.1128 36.2559 88.1128 36.0728 88.1128H35.8897H35.7066H35.5234V82.4051C35.5234 82.2267 35.5234 82.2267 35.7066 82.0483H35.8897H36.439C36.6221 82.0483 36.6221 82.0483 36.8052 82.0483C36.8052 82.0483 36.9883 82.0483 36.9883 82.2267C36.6221 82.0483 36.6221 82.0483 36.6221 82.0483C36.6221 82.0483 36.6221 82.2267 36.8052 82.2267L38.6364 86.8642L40.4675 82.4051C40.4675 82.2267 40.4675 82.2267 40.6506 82.2267L40.8337 82.0483H41.0168H41.1999H41.7493H41.9324C41.9324 82.0483 41.9324 82.0483 42.1155 82.0483C42.1155 82.0483 42.1155 82.0483 42.1155 82.2267V82.4051V87.9344Z" fill="black"/>
<path d="M48.7087 87.7563C48.7087 87.9347 48.8918 87.9347 48.7087 87.7563C48.7087 87.9347 48.7087 87.9347 48.7087 88.1131C48.7087 88.1131 48.7087 88.1131 48.5256 88.1131H48.3425C48.1594 88.1131 48.1594 88.1131 48.1594 88.1131H47.9763L47.4269 86.5078H44.6802L44.1309 87.9347C44.1309 87.9347 44.1309 87.9347 43.9478 87.9347H43.7647C43.5815 87.9347 43.5815 87.9347 43.5815 87.9347H43.3984C43.3984 87.9347 43.3984 87.9347 43.3984 87.7563V87.578L45.5958 81.6919C45.5958 81.6919 45.5958 81.6919 45.7789 81.6919H45.962H46.1451C46.3282 81.6919 46.3282 81.6919 46.3282 81.6919H46.5114C46.5114 81.6919 46.5114 81.6919 46.6945 81.6919C46.6945 81.6919 46.6945 81.6919 46.6945 81.8703L48.7087 87.7563ZM45.962 82.5837L44.8633 85.7943H47.0607L45.962 82.5837Z" fill="black"/>
<path d="M54.7507 87.7563C54.7507 87.9347 54.7507 87.9347 54.5676 88.1131C54.5676 88.1131 54.5676 88.1131 54.3845 88.1131C54.2014 88.1131 54.3845 88.1131 54.2013 88.1131H53.8351H53.652C53.652 88.1131 53.4689 88.1131 53.4689 87.9347L53.2858 87.7563C53.2858 87.7563 53.1027 87.578 53.1027 87.3996L51.2715 83.8323C51.0884 83.6539 51.0884 83.4756 50.9053 83.2972C50.7222 83.1188 50.7222 82.9405 50.5391 82.7621C50.5391 82.9405 50.5391 83.2972 50.5391 83.4756C50.5391 83.6539 50.5391 84.0107 50.5391 84.189V87.9347C50.5391 87.9347 50.5391 87.9347 50.356 87.9347H50.1729H49.9898H49.8066V82.0486C49.8066 81.8703 49.8066 81.8703 49.9898 81.6919H50.1729H50.5391C50.7222 81.6919 50.7222 81.6919 50.7222 81.6919H50.9053C50.9053 81.6919 51.0884 81.6919 51.0884 81.8703L51.2715 82.0486L52.7364 84.7241C52.9196 84.9025 52.9196 85.0809 52.9196 85.2592C52.9196 85.4376 53.1027 85.616 53.1027 85.7943C53.1027 85.9727 53.2858 86.1511 53.2858 86.3294C53.2858 86.5078 53.4689 86.6862 53.4689 86.8645C53.4689 86.6862 53.4689 86.3294 53.4689 86.1511C53.4689 85.7943 53.4689 85.616 53.4689 85.4376V82.0486C53.4689 82.0486 53.4689 82.0486 53.652 82.0486H53.8351H54.0182H54.2013V87.7563H54.7507Z" fill="black"/>
<path d="M60.4279 82.2268C60.4279 82.4052 60.4279 82.4052 60.4279 82.5836H58.5968V88.1129C58.5968 88.1129 58.5968 88.1129 58.4137 88.1129H58.2306H58.0474H57.8643V82.5836H56.0332C56.0332 82.5836 56.0332 82.5836 56.0332 82.4052V82.2268V82.0485C56.0332 82.0485 56.0332 82.0485 56.0332 81.8701H60.611C60.4279 81.8701 60.4279 81.8701 60.4279 82.2268C60.4279 82.0485 60.4279 82.0485 60.4279 82.2268Z" fill="black"/>
<path d="M65.5539 87.7563C65.5539 87.9347 65.5539 87.9347 65.5539 87.7563C65.5539 87.9347 65.5539 87.9347 65.5539 88.1131C65.5539 88.1131 65.5539 88.1131 65.3708 88.1131H65.1877C65.0046 88.1131 65.0046 88.1131 65.0046 88.1131H64.8215L64.089 86.5078H61.3423L60.793 87.9347C60.793 87.9347 60.793 87.9347 60.6099 87.9347H60.4268C60.2437 87.9347 60.2437 87.9347 60.2437 87.9347H60.0605C60.0605 87.9347 60.0605 87.9347 60.0605 87.7563V87.578L62.2579 81.6919C62.2579 81.6919 62.2579 81.6919 62.441 81.6919H62.6241H62.8072C62.9904 81.6919 62.9904 81.6919 62.9904 81.6919H63.1735C63.1735 81.6919 63.1735 81.6919 63.3566 81.6919C63.3566 81.6919 63.3566 81.6919 63.3566 81.8703L65.5539 87.7563ZM62.6241 82.5837L61.5254 85.7943H63.7228L62.6241 82.5837Z" fill="black"/>
<path d="M71.4143 87.7563C71.4143 87.9347 71.4143 87.9347 71.2312 88.1131C71.2312 88.1131 71.2312 88.1131 71.048 88.1131C71.048 88.1131 71.048 88.1131 70.8649 88.1131H70.4987H70.3156C70.3156 88.1131 70.1325 88.1131 70.1325 87.9347L69.9494 87.7563C69.9494 87.7563 69.7663 87.578 69.7663 87.3996L67.752 83.8323C67.5689 83.6539 67.5689 83.4756 67.3858 83.2972C67.2027 83.1188 67.2027 82.9405 67.0196 82.7621C67.0196 82.9405 67.0196 83.2972 67.0196 83.4756C67.0196 83.6539 67.0196 84.0107 67.0196 84.189V87.9347C67.0196 87.9347 67.0196 87.9347 66.8364 87.9347H66.6533H66.4702H66.2871V82.0486C66.2871 81.8703 66.2871 81.8703 66.4702 81.6919H66.6533H67.0196C67.2027 81.6919 67.2027 81.6919 67.2027 81.6919H67.3858C67.3858 81.6919 67.5689 81.6919 67.5689 81.8703L67.752 82.0486L69.2169 84.7241C69.4 84.9025 69.4 85.0809 69.4 85.2592C69.4 85.4376 69.5831 85.616 69.5831 85.7943C69.5831 85.9727 69.7663 86.1511 69.7663 86.3294C69.7663 86.5078 69.9494 86.6862 69.9494 86.8645C69.9494 86.6862 69.9494 86.3294 69.9494 86.1511C69.9494 85.7943 69.9494 85.616 69.9494 85.4376V82.0486C69.9494 82.0486 69.9494 82.0486 70.1325 82.0486H70.3156H70.4987H70.6818V87.7563H71.4143Z" fill="black"/>
<path d="M79.4709 82.2268C79.4709 82.4052 79.4709 82.4052 79.4709 82.5836H77.6398V88.1129C77.6398 88.1129 77.6398 88.1129 77.4566 88.1129H77.2735H77.0904H76.9073V82.5836H75.0762C75.0762 82.5836 75.0762 82.5836 75.0762 82.4052V82.2268V82.0485C75.0762 82.0485 75.0762 82.0485 75.0762 81.8701H79.654C79.4709 81.8701 79.4709 81.8701 79.4709 82.2268C79.4709 82.0485 79.4709 82.0485 79.4709 82.2268Z" fill="black"/>
<path d="M85.5139 84.9025C85.5139 85.4376 85.5139 85.7943 85.3308 86.3294C85.1477 86.6862 84.9646 87.0429 84.7815 87.3996C84.5983 87.7563 84.2321 87.9347 83.8659 88.1131C83.4997 88.2915 83.1334 88.2914 82.5841 88.2914C82.0348 88.2914 81.6685 88.2915 81.3023 88.1131C80.9361 87.9347 80.5699 87.7563 80.3868 87.578C80.2036 87.2212 80.0205 87.0429 79.8374 86.5078C79.6543 86.1511 79.6543 85.616 79.6543 85.0809C79.6543 84.5458 79.6543 84.189 79.8374 83.6539C80.0205 83.2972 80.2036 82.9405 80.3868 82.5837C80.5699 82.227 80.9361 82.0486 81.3023 81.8703C81.6685 81.6919 82.0348 81.6919 82.5841 81.6919C83.1334 81.6919 83.4997 81.6919 83.8659 81.8703C84.2321 82.0486 84.5983 82.227 84.7815 82.4054C84.9646 82.5837 85.1477 82.9405 85.3308 83.4756C85.5139 83.8323 85.5139 84.3674 85.5139 84.9025ZM84.5983 84.9025C84.5983 84.5458 84.5983 84.189 84.4152 83.8323C84.4152 83.4756 84.2321 83.2972 84.049 83.1188C83.8659 82.9405 83.6828 82.7621 83.4997 82.5837C83.3166 82.4054 82.9503 82.4054 82.5841 82.4054C82.2179 82.4054 81.8516 82.4054 81.6685 82.5837C81.4854 82.7621 81.3023 82.9405 81.1192 83.1188C80.9361 83.2972 80.9361 83.6539 80.753 83.8323C80.753 84.189 80.5699 84.3674 80.5699 84.7241C80.5699 85.0809 80.5699 85.4376 80.753 85.7943C80.753 86.151 80.9361 86.3294 81.1192 86.6861C81.3023 86.8645 81.4854 87.0429 81.6685 87.2213C81.8516 87.3996 82.2179 87.3996 82.5841 87.3996C82.9503 87.3996 83.3166 87.3996 83.4997 87.2213C83.6828 87.0429 84.049 86.8645 84.049 86.6861C84.2321 86.5078 84.2321 86.151 84.4152 85.7943C84.5983 85.616 84.5983 85.2592 84.5983 84.9025Z" fill="black"/>
<path d="M91.739 85.7942C91.739 86.1509 91.739 86.5076 91.5559 86.8644C91.3727 87.2211 91.1896 87.3995 91.0065 87.5778C90.8234 87.7562 90.4572 87.9346 90.2741 88.1129C89.9078 88.2913 89.5416 88.2913 89.1754 88.2913C88.8092 88.2913 88.4429 88.2913 88.2598 88.1129C87.8936 87.9346 87.7105 87.9346 87.5274 87.7562C87.3443 87.5778 87.1611 87.3995 86.978 87.0427C86.7949 86.686 86.7949 86.3293 86.7949 85.9725V82.0485C86.7949 82.0485 86.7949 82.0485 86.978 82.0485H87.1611H87.3443H87.5274V85.7942C87.5274 86.1509 87.5274 86.3293 87.7105 86.5076C87.7105 86.686 87.8936 86.8644 88.0767 87.0427C88.2598 87.2211 88.4429 87.2211 88.6261 87.3995C88.8092 87.3995 88.9923 87.5778 89.3585 87.5778C89.5416 87.5778 89.9078 87.5778 90.091 87.3995C90.2741 87.3995 90.4572 87.2211 90.6403 87.0427C90.8234 86.8644 90.8234 86.686 91.0065 86.5076C91.0065 86.3293 91.1896 85.9725 91.1896 85.7942V81.8701C91.1896 81.8701 91.1896 81.8701 91.3727 81.8701H91.5559H91.739H91.9221V85.7942H91.739Z" fill="black"/>
<path d="M97.7829 87.9344C97.7829 88.1128 97.7829 88.1128 97.7829 87.9344C97.5998 88.1128 97.5998 88.1128 97.5998 88.1128H97.4166H97.2335H97.0504C97.0504 88.1128 97.0504 88.1128 97.0504 87.9344L96.5011 86.5075C96.5011 86.3291 96.318 86.1508 96.318 85.9724C96.318 85.794 96.1349 85.794 96.1349 85.6157C95.9517 85.4373 95.9517 85.4373 95.7686 85.4373C95.5855 85.4373 95.4024 85.4373 95.2193 85.4373H94.67V88.1128C94.67 88.1128 94.67 88.1128 94.4868 88.1128H94.3037H94.1206H93.9375V82.2267C93.9375 82.0483 93.9375 82.0483 94.1206 82.0483H94.3037H95.2193C95.4024 82.0483 95.5855 82.0483 95.5855 82.0483C95.7686 82.0483 95.7686 82.0483 95.9517 82.0483C96.1349 82.0483 96.5011 82.2267 96.6842 82.2267C96.8673 82.4051 97.0504 82.4051 97.2335 82.5834C97.4166 82.7618 97.4166 82.9402 97.5998 83.1185C97.5998 83.2969 97.7829 83.4753 97.7829 83.6536C97.7829 83.832 97.7829 84.0104 97.7829 84.1887C97.7829 84.3671 97.5998 84.5455 97.5998 84.5455C97.4166 84.7238 97.4166 84.7238 97.2335 84.9022C97.0504 85.0806 96.8673 85.0806 96.6842 85.0806C96.8673 85.0806 96.8673 85.2589 97.0504 85.2589L97.2335 85.4373C97.2335 85.6157 97.4166 85.6157 97.4166 85.794C97.4166 85.9724 97.5998 86.1508 97.5998 86.1508L98.1491 87.5777C97.7829 87.7561 97.7829 87.7561 97.7829 87.9344ZM96.5011 83.4753C96.5011 83.2969 96.5011 82.9402 96.318 82.7618C96.1349 82.5834 95.9517 82.4051 95.7686 82.4051C95.7686 82.4051 95.5855 82.4051 95.4024 82.4051C95.2193 82.4051 95.2193 82.4051 95.0362 82.4051H94.3037V84.5455H95.2193C95.4024 84.5455 95.5855 84.5455 95.7686 84.5455C95.9517 84.5455 96.1349 84.3671 96.1349 84.3671C96.318 84.1887 96.318 84.1887 96.318 84.0104C96.5011 83.832 96.5011 83.6536 96.5011 83.4753Z" fill="black"/>
<path d="M106.389 84.9021C106.389 85.4372 106.389 85.9723 106.206 86.329C106.023 86.6857 105.84 87.0425 105.657 87.3992C105.474 87.5776 105.108 87.9343 104.558 87.9343C104.192 88.1127 103.643 88.1127 103.093 88.1127H101.812H101.628L101.445 87.9343V82.4049C101.445 82.2266 101.445 82.2266 101.628 82.2266H101.812H103.276C103.826 82.2266 104.375 82.2266 104.741 82.4049C105.108 82.5833 105.474 82.7617 105.657 82.94C105.84 83.1184 106.206 83.4751 106.206 83.8319C106.206 84.0102 106.389 84.367 106.389 84.9021ZM105.474 84.9021C105.474 84.5453 105.474 84.1886 105.291 84.0102C105.291 83.6535 105.108 83.4751 104.924 83.2968C104.741 83.1184 104.558 82.94 104.192 82.7617C103.826 82.5833 103.46 82.5833 103.093 82.5833H102.178V87.3992H103.093C103.46 87.3992 103.826 87.3992 104.192 87.2208C104.558 87.0425 104.741 87.0425 104.924 86.6857C105.108 86.5074 105.291 86.1506 105.291 85.9723C105.474 85.6155 105.474 85.2588 105.474 84.9021Z" fill="black"/>
<path d="M111.332 87.7561C111.332 87.9344 111.332 87.9344 111.332 87.9344H108.036H107.853L107.67 87.7561V82.2267C107.67 82.0483 107.67 82.0483 107.853 82.0483H108.036H111.149C111.149 82.0483 111.149 82.0483 111.149 82.2267V82.4051V82.5834C111.149 82.5834 111.149 82.5834 111.149 82.7618H108.585V84.7238H110.783C110.783 84.7238 110.783 84.7238 110.783 84.9022V85.0806V85.2589C110.783 85.2589 110.783 85.2589 110.783 85.4373H108.585V87.3993H111.149C111.332 87.5777 111.332 87.5777 111.332 87.7561Z" fill="black"/>
<path d="M116.094 86.3292C116.094 86.686 116.094 86.8643 115.911 87.0427C115.728 87.221 115.728 87.3994 115.361 87.5778C115.178 87.7561 114.995 87.9345 114.629 87.9345C114.446 87.9345 114.08 88.1129 113.713 88.1129C113.53 88.1129 113.347 88.1129 113.164 88.1129C112.981 88.1129 112.798 88.1129 112.615 87.9345C112.432 87.9345 112.432 87.7561 112.249 87.7561C112.065 87.7561 112.065 87.5778 112.065 87.5778C112.065 87.5778 112.065 87.5778 112.065 87.3994V87.2211V87.0427C112.065 87.0427 112.065 87.0427 112.065 86.8643H112.249C112.249 86.8643 112.432 87.0427 112.615 87.0427C112.798 87.0427 112.981 87.2211 113.164 87.2211C113.347 87.2211 113.53 87.2211 113.897 87.2211C114.08 87.2211 114.263 87.2211 114.446 87.2211C114.629 87.2211 114.812 87.0427 114.812 87.0427C114.995 86.8643 114.995 86.8643 114.995 86.6859C114.995 86.5076 114.995 86.3292 114.995 86.3292C114.995 86.1509 114.995 85.9725 114.812 85.7941C114.812 85.6158 114.629 85.6158 114.446 85.4374C114.263 85.259 114.08 85.259 113.897 85.259C113.713 85.259 113.53 85.0807 113.347 85.0807C113.164 85.0807 112.981 84.9023 112.798 84.7239C112.615 84.5456 112.432 84.5456 112.249 84.3672C112.065 84.1888 112.065 84.0105 111.882 83.8321C111.882 83.6537 111.699 83.4754 111.699 83.1186C111.699 82.9403 111.699 82.5835 111.882 82.4052C112.065 82.2268 112.065 82.0484 112.249 81.8701C112.432 81.6917 112.615 81.6917 112.798 81.5133C112.981 81.5133 113.347 81.335 113.53 81.335C113.713 81.335 113.897 81.335 113.897 81.335C114.08 81.335 114.263 81.335 114.263 81.5133C114.446 81.5133 114.446 81.5133 114.629 81.6917C114.812 81.6917 114.812 81.8701 114.812 81.8701C114.812 81.8701 114.812 81.8701 114.812 82.0484C114.812 82.0484 114.812 82.0484 114.812 82.2268V82.4052C114.812 82.4052 114.812 82.4052 114.812 82.5835H114.629C114.629 82.5835 114.446 82.4052 114.263 82.4052C114.08 82.4052 114.08 82.2268 113.897 82.2268C113.713 82.2268 113.53 82.2268 113.347 82.2268C113.164 82.2268 112.981 82.2268 112.798 82.2268C112.615 82.2268 112.615 82.4052 112.432 82.4052C112.432 82.4052 112.249 82.5835 112.249 82.7619C112.249 82.9403 112.249 82.9403 112.249 83.1186C112.249 83.297 112.249 83.4754 112.432 83.6537C112.432 83.8321 112.615 83.8321 112.798 84.0105C112.981 84.1888 113.164 84.1888 113.347 84.1888C113.53 84.1888 113.713 84.3672 113.897 84.3672C114.08 84.3672 114.263 84.5456 114.446 84.7239C114.629 84.9023 114.812 84.9023 114.995 85.0807C115.178 85.259 115.178 85.4374 115.361 85.6158C116.094 85.7941 116.094 86.1509 116.094 86.3292Z" fill="black"/>
<path d="M121.221 82.2268C121.221 82.4052 121.221 82.4052 121.221 82.5836H119.39V88.1129C119.39 88.1129 119.39 88.1129 119.207 88.1129H119.024H118.84H118.657V82.5836H116.826C116.826 82.5836 116.826 82.5836 116.826 82.4052V82.2268V82.0485C116.826 82.0485 116.826 82.0485 116.826 81.8701H121.404C121.221 81.8701 121.221 81.8701 121.221 82.2268C121.221 82.0485 121.221 82.0485 121.221 82.2268Z" fill="black"/>
<path d="M123.053 87.9344C123.053 88.1128 123.053 88.1128 123.053 87.9344C122.87 88.1128 122.87 88.1128 122.87 88.1128H122.687H122.503H122.32V82.0483C122.32 82.0483 122.32 82.0483 122.503 82.0483H122.687H122.87H123.053V87.9344Z" fill="black"/>
<path d="M129.645 87.7563C129.645 87.9347 129.645 87.9347 129.462 88.1131C129.462 88.1131 129.462 88.1131 129.279 88.1131C129.279 88.1131 129.279 88.1131 129.095 88.1131H128.729H128.546C128.546 88.1131 128.363 88.1131 128.363 87.9347L128.18 87.7563C128.18 87.7563 127.997 87.578 127.997 87.3996L125.982 83.8323C125.799 83.6539 125.799 83.4756 125.616 83.2972C125.433 83.1188 125.433 82.9405 125.25 82.7621C125.25 82.9405 125.25 83.2972 125.25 83.4756C125.25 83.6539 125.25 84.0107 125.25 84.189V87.9347C125.25 87.9347 125.25 87.9347 125.067 87.9347H124.884H124.701H124.518V82.0486C124.518 81.8703 124.518 81.8703 124.701 81.6919H124.884H125.25C125.433 81.6919 125.433 81.6919 125.433 81.6919H125.616C125.616 81.6919 125.799 81.6919 125.799 81.8703L125.982 82.0486L127.447 84.7241C127.63 84.9025 127.63 85.0809 127.63 85.2592C127.63 85.4376 127.814 85.616 127.814 85.7943C127.814 85.9727 127.997 86.1511 127.997 86.3294C127.997 86.5078 128.18 86.6862 128.18 86.8645C128.18 86.6862 128.18 86.3294 128.18 86.1511C128.18 85.7943 128.18 85.616 128.18 85.4376V82.0486C128.18 82.0486 128.18 82.0486 128.363 82.0486H128.546H128.729H128.912V87.7563H129.645Z" fill="black"/>
<path d="M136.236 87.7563C136.236 87.9347 136.236 87.9347 136.236 87.7563C136.236 87.9347 136.236 87.9347 136.236 88.1131C136.236 88.1131 136.236 88.1131 136.053 88.1131H135.87C135.687 88.1131 135.687 88.1131 135.687 88.1131H135.504L134.954 86.5078H132.208L131.658 87.9347C131.658 87.9347 131.658 87.9347 131.475 87.9347H131.292C131.109 87.9347 131.109 87.9347 131.109 87.9347H130.926C130.926 87.9347 130.926 87.9347 130.926 87.7563V87.578L133.123 81.6919C133.123 81.6919 133.123 81.6919 133.306 81.6919H133.489H133.672C133.856 81.6919 133.856 81.6919 133.856 81.6919H134.039C134.039 81.6919 134.039 81.6919 134.222 81.6919C134.222 81.6919 134.222 81.6919 134.222 81.8703L136.236 87.7563ZM133.489 82.5837L132.391 85.7943H134.588L133.489 82.5837Z" fill="black"/>
<path d="M140.631 82.2268C140.631 82.4052 140.631 82.4052 140.631 82.5836H138.8V88.1129C138.8 88.1129 138.8 88.1129 138.617 88.1129H138.434H138.251H138.067V82.5836H136.236C136.236 82.5836 136.236 82.5836 136.236 82.4052V82.2268V82.0485C136.236 82.0485 136.236 82.0485 136.236 81.8701H140.814C140.448 81.8701 140.448 81.8701 140.631 82.2268C140.631 82.0485 140.631 82.0485 140.631 82.2268Z" fill="black"/>
<path d="M142.279 87.9344C142.279 88.1128 142.279 88.1128 142.279 87.9344C142.096 88.1128 142.096 88.1128 142.096 88.1128H141.913H141.73H141.547V82.0483C141.547 82.0483 141.547 82.0483 141.73 82.0483H141.913H142.096H142.279V87.9344Z" fill="black"/>
<path d="M149.42 84.9025C149.42 85.4376 149.42 85.7943 149.237 86.3294C149.054 86.6862 148.871 87.0429 148.688 87.3996C148.505 87.7563 148.138 87.9347 147.772 88.1131C147.406 88.2915 147.04 88.2914 146.49 88.2914C145.941 88.2914 145.575 88.2915 145.209 88.1131C144.842 87.9347 144.476 87.7563 144.293 87.578C144.11 87.2212 143.927 87.0429 143.744 86.5078C143.561 86.1511 143.561 85.616 143.561 85.0809C143.561 84.5458 143.561 84.189 143.744 83.6539C143.927 83.2972 144.11 82.9405 144.293 82.5837C144.476 82.227 144.842 82.0486 145.209 81.8703C145.575 81.6919 145.941 81.6919 146.49 81.6919C147.04 81.6919 147.406 81.6919 147.772 81.8703C148.138 82.0486 148.505 82.227 148.688 82.4054C148.871 82.5837 149.054 82.9405 149.237 83.4756C149.42 83.8323 149.42 84.3674 149.42 84.9025ZM148.505 84.9025C148.505 84.5458 148.505 84.189 148.321 83.8323C148.321 83.4756 148.138 83.2972 147.955 83.1188C147.772 82.9405 147.589 82.7621 147.406 82.5837C147.223 82.4054 146.857 82.4054 146.49 82.4054C146.124 82.4054 145.758 82.4054 145.575 82.5837C145.392 82.7621 145.025 82.9405 145.025 83.1188C144.842 83.2972 144.842 83.6539 144.659 83.8323C144.659 84.189 144.476 84.3674 144.476 84.7241C144.476 85.0809 144.476 85.4376 144.659 85.7943C144.659 86.151 144.842 86.3294 145.025 86.6861C145.209 86.8645 145.392 87.0429 145.575 87.2213C145.941 87.3996 146.124 87.3996 146.49 87.3996C146.857 87.3996 147.223 87.3996 147.406 87.2213C147.589 87.0429 147.955 86.8645 147.955 86.6861C148.138 86.5078 148.138 86.151 148.321 85.7943C148.505 85.616 148.505 85.2592 148.505 84.9025Z" fill="black"/>
<path d="M155.647 87.7563C155.647 87.9347 155.647 87.9347 155.464 88.1131C155.464 88.1131 155.464 88.1131 155.28 88.1131C155.28 88.1131 155.28 88.1131 155.097 88.1131H154.731H154.548C154.548 88.1131 154.365 88.1131 154.365 87.9347L154.182 87.7563C154.182 87.7563 153.999 87.578 153.999 87.3996L151.984 83.8323C151.801 83.6539 151.801 83.4756 151.618 83.2972C151.435 83.1188 151.435 82.9405 151.252 82.7621C151.252 82.9405 151.252 83.2972 151.252 83.4756C151.252 83.6539 151.252 84.0107 151.252 84.189V87.9347C151.252 87.9347 151.252 87.9347 151.069 87.9347H150.886H150.703H150.52V82.0486C150.52 81.8703 150.52 81.8703 150.703 81.6919H150.886H151.252C151.435 81.6919 151.435 81.6919 151.435 81.6919H151.618C151.618 81.6919 151.801 81.6919 151.801 81.8703L151.984 82.0486L153.449 84.7241C153.632 84.9025 153.632 85.0809 153.632 85.2592C153.632 85.4376 153.816 85.616 153.816 85.7943C153.816 85.9727 153.999 86.1511 153.999 86.3294C153.999 86.5078 154.182 86.6862 154.182 86.8645C154.182 86.6862 154.182 86.3294 154.182 86.1511C154.182 85.7943 154.182 85.616 154.182 85.4376V82.0486C154.182 82.0486 154.182 82.0486 154.365 82.0486H154.548H154.731H154.914V87.7563H155.647Z" fill="black"/>
<path d="M160.957 86.3292C160.957 86.686 160.957 86.8643 160.774 87.0427C160.591 87.221 160.591 87.3994 160.225 87.5778C160.042 87.7561 159.859 87.9345 159.492 87.9345C159.309 87.9345 158.943 88.1129 158.577 88.1129C158.394 88.1129 158.211 88.1129 158.027 88.1129C157.844 88.1129 157.661 88.1129 157.478 87.9345C157.295 87.9345 157.295 87.7561 157.112 87.7561C156.929 87.7561 156.929 87.5778 156.929 87.5778C156.929 87.5778 156.929 87.5778 156.929 87.3994V87.2211V87.0427C156.929 87.0427 156.929 87.0427 156.929 86.8643H157.112C157.112 86.8643 157.295 87.0427 157.478 87.0427C157.661 87.0427 157.844 87.2211 158.027 87.2211C158.211 87.2211 158.394 87.2211 158.76 87.2211C158.943 87.2211 159.126 87.2211 159.309 87.2211C159.492 87.2211 159.675 87.0427 159.675 87.0427C159.859 86.8643 159.859 86.8643 159.859 86.6859C159.859 86.5076 159.859 86.3292 159.859 86.3292C159.859 86.1509 159.859 85.9725 159.675 85.7941C159.675 85.6158 159.492 85.6158 159.309 85.4374C159.126 85.259 158.943 85.259 158.76 85.259C158.577 85.259 158.394 85.0807 158.211 85.0807C158.027 85.0807 157.844 84.9023 157.661 84.7239C157.478 84.5456 157.295 84.5456 157.112 84.3672C156.929 84.1888 156.929 84.0105 156.746 83.8321C156.746 83.6537 156.562 83.4754 156.562 83.1186C156.562 82.9403 156.562 82.5835 156.746 82.4052C156.929 82.2268 156.929 82.0484 157.112 81.8701C157.295 81.6917 157.478 81.6917 157.661 81.5133C157.844 81.5133 158.211 81.335 158.394 81.335C158.577 81.335 158.76 81.335 158.76 81.335C158.943 81.335 159.126 81.335 159.126 81.5133C159.309 81.5133 159.309 81.5133 159.492 81.6917C159.675 81.6917 159.675 81.8701 159.675 81.8701C159.675 81.8701 159.675 81.8701 159.675 82.0484C159.675 82.0484 159.675 82.0484 159.675 82.2268V82.4052C159.675 82.4052 159.675 82.4052 159.675 82.5835H159.492C159.492 82.5835 159.309 82.4052 159.126 82.4052C158.943 82.4052 158.943 82.2268 158.76 82.2268C158.577 82.2268 158.394 82.2268 158.211 82.2268C158.027 82.2268 157.844 82.2268 157.661 82.2268C157.478 82.2268 157.478 82.4052 157.295 82.4052C157.295 82.4052 157.112 82.5835 157.112 82.7619C157.112 82.9403 157.112 82.9403 157.112 83.1186C157.112 83.297 157.112 83.4754 157.295 83.6537C157.295 83.8321 157.478 83.8321 157.661 84.0105C157.844 84.1888 158.027 84.1888 158.211 84.1888C158.394 84.1888 158.577 84.3672 158.76 84.3672C158.943 84.3672 159.126 84.5456 159.309 84.7239C159.492 84.9023 159.675 84.9023 159.859 85.0807C160.042 85.259 160.042 85.4374 160.225 85.6158C160.957 85.7941 160.957 86.1509 160.957 86.3292Z" fill="black"/>
<path fill-rule="evenodd" clip-rule="evenodd" d="M42.6656 7.31302C42.6656 7.31302 41.5669 4.28079 44.1305 4.28079C44.1305 4.28079 45.2292 1.24856 46.1448 1.6053C46.1448 1.6053 45.7785 3.38896 44.863 4.45916C44.863 4.45916 44.863 5.35099 45.4123 5.70772C45.9617 6.06445 48.7084 9.81014 49.2577 16.9448L49.9901 22.6525C49.9901 22.6525 50.5395 23.366 51.6382 22.8309C52.7368 22.4741 55.4835 21.4039 57.1315 21.7607L57.864 21.5823C57.864 21.5823 58.4133 16.9448 61.8925 18.015C61.8925 18.015 63.9067 18.7285 63.5405 21.0472C63.5405 21.0472 65.921 20.6905 67.3859 21.5823C67.3859 21.5823 70.865 23.0092 71.2312 23.0092C71.7806 23.0092 72.513 22.1174 72.6961 21.0472L73.0624 19.977C73.0624 19.977 72.8793 14.2693 74.161 11.9505C74.161 11.9505 75.9922 7.66975 77.0909 7.49138L76.9077 0L77.8233 0.713465L78.0064 1.6053L78.3726 6.24282C78.3726 6.24282 79.2882 6.24282 79.1051 7.31302C79.1051 7.31302 79.8375 9.27504 79.6544 10.1669L80.9362 12.3073L80.2038 13.3775L78.7389 10.5236C78.7389 10.5236 76.9077 11.2371 76.7246 12.8424C76.7246 12.8424 76.3584 19.977 76.3584 20.3338C76.3584 20.6905 76.3584 26.9333 73.0624 28.1819C73.0624 28.1819 72.1468 29.0737 71.2312 27.8251C71.2312 27.8251 70.4988 27.1117 69.7663 27.4684C69.7663 27.4684 69.7663 28.3602 69.217 27.6468C69.217 27.6468 69.0339 27.6468 68.8508 27.6468C68.6677 27.8251 68.6677 28.5386 68.1183 27.6468C68.1183 27.6468 66.4703 28.1819 66.4703 29.2521C66.4703 29.2521 66.2872 30.1439 66.4703 30.3223C66.6534 30.679 67.7521 33.7112 67.3859 36.03C67.3859 36.03 67.3859 36.5651 67.9352 36.5651C68.4845 36.5651 69.217 37.8136 69.0339 38.7055C68.8508 39.5973 69.217 46.732 68.8508 47.2671L68.4846 48.8723C68.4846 48.8723 68.3014 52.2613 68.4846 52.7964C68.8508 53.5099 69.0339 55.2935 68.3014 55.1152C68.3014 55.1152 67.7521 56.3637 67.569 55.2935C67.569 55.2935 67.2028 54.5801 67.0196 54.9368C67.0196 54.9368 67.0196 56.1854 66.4703 56.1854C66.4703 56.1854 66.2872 56.3637 66.2872 54.9368L65.921 53.6882C65.921 53.6882 65.5547 52.9748 65.1885 53.6882C65.1885 53.6882 65.0054 55.1152 64.6392 53.8666C64.6392 53.8666 64.273 52.2613 65.3716 52.4397V50.8344L65.1885 42.8079C65.1885 42.8079 64.8223 42.6295 64.8223 42.8079C64.6392 42.9863 63.5405 44.2348 62.4418 44.2348H60.6107C60.6107 44.2348 60.4276 44.2348 60.6107 44.7699C60.9769 45.305 61.5263 46.5536 61.7094 47.2671C61.7094 47.9805 61.7094 48.5156 61.8925 48.694C62.0756 48.8723 62.6249 49.5858 62.808 49.9425C62.808 50.2993 62.9912 50.8344 62.9912 51.0127C62.9912 51.1911 63.1743 51.7262 62.6249 51.3695C62.6249 51.3695 61.7094 51.3695 62.0756 51.7262C62.4418 52.0829 62.9912 51.5478 62.9912 51.9046C62.9912 52.2613 63.1743 53.1531 62.808 53.3315C62.808 53.3315 61.8925 53.5099 61.16 53.3315C60.6107 52.9748 59.512 52.4397 59.512 51.9046C59.512 51.1911 59.3289 48.8724 59.3289 48.3373C59.3289 47.8022 58.7796 45.8401 57.4978 44.9483C57.4978 44.9483 52.1875 41.5593 52.3706 38.7055C52.3706 38.7055 52.0044 35.3165 54.7511 35.6732H55.1173C55.1173 35.6732 54.568 32.1059 56.0329 29.6088C56.0329 29.6088 56.3991 28.1819 56.216 27.4684C56.216 27.4684 55.6666 26.7549 55.3004 27.4684C55.3004 27.4684 54.568 28.5386 54.3849 27.29C54.2017 26.0415 54.0186 26.3982 53.4693 26.5766C53.4693 26.5766 53.4693 27.8251 52.9199 26.7549C52.9199 26.7549 52.1875 26.5766 52.1875 27.4684C52.1875 27.4684 51.455 28.1819 50.9057 27.29C50.9057 27.29 50.3564 26.5766 50.1733 27.29C50.1733 27.29 49.807 27.8251 49.6239 27.1117C49.6239 27.1117 49.2577 26.9333 49.2577 27.4684C49.2577 27.4684 48.8915 28.1819 48.7084 27.4684C48.7084 27.4684 46.8772 27.29 46.6941 26.2198L45.7785 13.5558C45.7785 13.5558 45.9617 10.3452 45.4123 9.81014C45.4123 9.81014 43.5812 8.02648 43.5812 7.84811C43.5812 7.66975 43.3981 8.02648 43.3981 8.02648L41.3838 9.98851C41.3838 9.98851 40.8345 10.702 40.2852 10.1669C40.2852 10.1669 39.9189 9.98851 41.0176 9.27504L42.8487 7.66975L42.6656 7.31302Z" fill="black"/>
</svg>
